{"title":"National Lampoon's Vacation [1983] DVDRip","uid":6615234,"size":839109494,"categoryP":"video","categoryS":"movies","magnet":"?xt=urn:btih:4d67012c310b5d08b5e79d2a0d8560bd3dba807d&amp;dn=National+Lampoon%5C%27s+Vacation+%5B1983%5D+DVDRip&amp;tr=udp%3A%2F%2Ftracker.openbittorrent.com%3A80&amp;tr=udp%3A%2F%2Fopen.demonii.com%3A1337&amp;tr=udp%3A%2F%2Ftracker.coppersurfer.tk%3A6969&amp;tr=udp%3A%2F%2Fexodus.desync.com%3A6969","seeders":0,"leechers":2,"uploader":"RetroidPrime91","files":3,"time":1313712553,"description":"The Griswold family's cross-country drive to the Walley World theme park proves to be much more arduous than they ever anticipated.\n\n\nFormat                           : AVI\nFormat/Info                      : Audio Video Interleave\nFile size                        : 800 MiB\nDuration                         : 1h 38mn\nOverall bit rate                 : 1 138 Kbps\nWriting application              : VirtualDubMod 1.5.4.1 (build 2178/release)\nWriting library                  : VirtualDubMod build 2178/release\n\nVideo\n\nFormat                           : MPEG-4 Visual\nFormat profile                   : Advanced Simple@L5\nFormat settings, BVOP            : Yes\nFormat settings, QPel            : No\nFormat settings, GMC             : No warppoints\nFormat settings, Matrix          : Custom\nCodec ID                         : XVID\nCodec ID/Hint                    : XviD\nDuration                         : 1h 38mn\nBit rate                         : 1 035 Kbps\nWidth                            : 512 pixels\nHeight                           : 384 pixels\nDisplay aspect ratio             : 4:3\nFrame rate                       : 23.976 fps\nColor space                      : YUV\nChroma subsampling               : 4:2:0\nBit depth                        : 8 bits\nScan type                        : Progressive\nCompression mode                 : Lossy\nBits/(Pixel*Frame)               : 0.220\nStream size                      : 728 MiB (91%)\nWriting library                  : XviD 1.2.1 (UTC 2008-12-04)\n\nAudio\n\nFormat                           : MPEG Audio\nFormat version                   : Version 1\nFormat profile                   : Layer 3\nCodec ID                         : 55\nCodec ID/Hint                    : MP3\nDuration                         : 1h 38mn\nBit rate mode                    : Constant\nBit rate                         : 96.0 Kbps\nChannel(s)                       : 1 channel\nSampling rate                    : 48.0 KHz\nCompression mode                 : Lossy\nStream size                      : 67.5 MiB (8%)\nAlignment                        : Aligned on interleaves\nInterleave, duration             : 83 ms (2.00 video frames)\nInterleave, preload duration     : 504 ms\nWriting library                  : LAME3.98.2\nLanguage                         : English\n\nPlease seed &amp; thank you for downloading, comments are appreciated.\n","torrent":{"xt":"urn:btih:4d67012c310b5d08b5e79d2a0d8560bd3dba807d","amp;dn":"National+Lampoon%5C%27s+Vacation+%5B1983%5D+DVDRip","amp;tr":["udp%3A%2F%2Ftracker.openbittorrent.com%3A80","udp%3A%2F%2Fopen.demonii.com%3A1337","udp%3A%2F%2Ftracker.coppersurfer.tk%3A6969","udp%3A%2F%2Fexodus.desync.com%3A6969"],"infoHash":"4d67012c310b5d08b5e79d2a0d8560bd3dba807d","infoHashBuffer":{"type":"Buffer","data":[77,103,1,44,49,11,93,8,181,231,157,42,13,133,96,189,61,186,128,125]},"announce":[],"urlList":[]}}